<?xml version="1.0" encoding="utf-8"?>
<!-- Generator: Adobe Illustrator 28.0.0, SVG Export Plug-In . SVG Version: 6.00 Build 0)  -->
<svg version="1.1" id="Layer_1" xmlns="http://www.w3.org/2000/svg" xmlns:xlink="http://www.w3.org/1999/xlink" x="0px" y="0px"
	 viewBox="0 0 32 32" style="enable-background:new 0 0 32 32;" xml:space="preserve">
<style type="text/css">
	.st0{fill:#FFFFFF;}
	.st1{fill:#1857A3;}
	.st2{fill:#E62330;}
</style>
<rect x="0" class="st0" width="32" height="32"/>
<g>
	<path class="st1" d="M28.1,18.8c-3.1,2-7.5,1.3-9.9-1.7c0.5-0.3,1-0.5,1.6-0.6c0.1,0,0.2,0,0.2,0.1c0.9,0.8,1.9,1.3,3.1,1.5
		c0.8,0.1,1.6,0.1,2.3-0.1c-1.7-2.4-5.8-3.1-8.3-0.8c1.4,2,1.8,4.2,1.2,6.6c-0.4,1.5-1.2,2.8-2.4,3.8c-2.5-2.1-3.9-6.5-1.2-10.4
		c-0.2-0.2-0.4-0.3-0.7-0.5c-1.6,2-3.5,3.1-6.1,3.2c-1.5,0.1-2.9-0.3-4.2-1.1c0.3-0.8,0.7-1.4,1.2-2c1.7-2,3.9-2.8,6.6-2.6
		c0.5,0,0.9,0.1,1.4,0.3c0.3,0.1,0.4,0,0.4-0.3c0.9-2.6-0.1-5.5-2.5-7c-0.3-0.2-0.6-0.3-0.9-0.5c0,0.7,0.2,1.4,0.4,2
		c0.5,1.2,1.4,2.2,2.5,2.9c0.1,0.1,0.2,0.2,0.2,0.3c0,0.5,0,1.1-0.1,1.6c-1.5-0.6-2.6-1.5-3.5-2.8C8.4,8.7,8.1,6.7,8.5,4.4
		C9,4.5,9.4,4.5,9.8,4.7c3.2,0.9,5.1,3.1,5.7,6.4c0.2,1.3,0,2.6-0.4,3.8c-0.1,0.2,0,0.3,0.1,0.4c0.2,0.1,0.4,0.3,0.6,0.4
		c0.2,0.1,0.3,0.1,0.4,0c1.1-0.9,2.3-1.4,3.7-1.6c3.2-0.4,5.7,0.8,7.5,3.4C27.7,17.9,27.9,18.4,28.1,18.8z M12.4,16
		c-1.7-0.7-5.5,0.5-5.9,1.9C8.7,18.5,11.2,17.5,12.4,16z M16,24.9c1.3-1.8,1.2-4.7,0-6.3C14.8,20.2,14.7,23,16,24.9z"/>
	<path class="st1" d="M23.9,6.2c-1.9,0.1-3.4,0.9-4.5,2.4c-1.1,1.5-1.4,3.2-1,5c-0.6,0.2-1.1,0.3-1.7,0.5c-0.1-0.3-0.1-0.6-0.1-0.9
		C16,8.8,19,5.1,22.9,4.5c0.1,0,0.2,0,0.3,0c0.5,0,0.5,0,0.6,0.4C23.8,5.3,23.8,5.7,23.9,6.2z"/>
	<path class="st2" d="M22.8,7c0.5,0,0.9,0.4,0.9,0.9c0,0.5-0.4,0.9-0.9,0.9c-0.5,0-0.9-0.4-0.9-0.9C21.9,7.4,22.3,7,22.8,7z"/>
	<path class="st2" d="M22.6,10.2c0,0.5-0.4,0.9-0.9,0.9c-0.5,0-0.9-0.4-0.9-0.9c0-0.5,0.4-0.9,0.9-0.9C22.2,9.4,22.6,9.7,22.6,10.2z
		"/>
	<path class="st2" d="M19.8,13c-0.5,0-0.9-0.4-0.9-0.9c0-0.5,0.4-0.9,0.9-0.9c0.5,0,0.9,0.4,0.9,0.9C20.7,12.6,20.3,13,19.8,13z"/>
</g>
</svg>
