<svg id="a" xmlns="http://www.w3.org/2000/svg" viewBox="0 0 32 32"><defs><style>.c{stroke-width:0;fill:#fff}</style></defs><path style="stroke-width:0;fill:#c51e50" d="M0 0h32v32H0z"/><path class="c" d="M19.52 18.91c-2.5-.03-4.54-1.41-4.55-3.03 0-1.57 1.91-2.78 4.29-2.75.29 0 .57.03.86.07-.39-.07-.78-.11-1.18-.11-2.52-.04-4.57 1.23-4.57 2.88s2.16 3.15 4.83 3.18c2.17.03 3.93-.89 4.42-2.15-.53 1.13-2.13 1.94-4.09 1.91M3 15.68v-.86c0-.14-.04-.2-.17-.23-.05 0-.11-.01-.16-.01-.04 0-.07 0-.07-.04s.03-.04.09-.04c.21 0 .47.01.55.01.2 0 .36-.01.5-.01.73 0 .86.39.86.61 0 .33-.19.53-.41.71.33.11.74.4.74.88 0 .44-.34.88-1.08.88-.05 0-.17 0-.28-.01-.12 0-.24-.01-.3-.01h-.51c-.05 0-.08-.01-.08-.04 0-.02.02-.03.07-.03s.1 0 .15-.02c.08-.02.1-.11.12-.22.02-.17.02-.49.02-.86v-.71Zm.49.07s.01.04.03.05c.06.01.13.01.19.01.1.01.21-.02.29-.08.12-.11.18-.27.17-.43 0-.27-.16-.63-.51-.63h-.13c-.03 0-.04.02-.04.07v1Zm.54.33c-.1-.07-.22-.1-.34-.1h-.17c-.02 0-.03 0-.03.03v.96c0 .27.01.34.14.39.09.04.2.05.3.05.18 0 .49-.1.49-.52a.981.981 0 0 0-.39-.81"/><path class="c" d="M5.72 16.51s-.03 0-.04.03l-.22.58c-.03.08-.05.16-.06.25 0 .07.04.13.16.13h.06s.06 0 .06.03-.02.04-.07.04c-.13 0-.3-.01-.43-.01-.04 0-.27.01-.48.01-.05 0-.08 0-.08-.04 0-.03.02-.03.05-.03h.13c.19-.02.26-.16.35-.37l1.02-2.55c.05-.12.07-.16.11-.16.04 0 .06.04.1.13.1.22.75 1.88 1.01 2.49.15.37.27.42.36.44.06.01.11.02.17.02.03 0 .05 0 .05.03s-.04.04-.19.04h-.77c-.07 0-.12 0-.12-.03s.02-.03.06-.04c.03-.01.05-.05.04-.08l-.32-.86s-.02-.03-.04-.03h-.9Zm.83-.2s.02-.01.02-.03l-.37-1s0-.04-.02-.04c-.01 0-.02.02-.03.04l-.37 1s0 .03.02.03h.75Z"/><path class="c" d="M8.39 17.02c0 .32.06.42.14.45.07.02.14.03.21.03.05 0 .07 0 .07.03s-.04.04-.09.04c-.27 0-.43-.01-.5-.01-.04 0-.23.01-.44.01-.05 0-.09 0-.09-.04 0-.03.02-.03.06-.03.06 0 .12 0 .18-.02.11-.03.12-.15.13-.5l.04-2.4c0-.08.01-.14.05-.14s.08.05.15.13c.05.05.67.71 1.26 1.3.28.27.82.86.89.92h.02l-.04-1.82c0-.25-.04-.32-.14-.36a.534.534 0 0 0-.22-.02c-.05 0-.06-.01-.06-.04s.05-.04.1-.04c.21 0 .41.01.49.01.05 0 .2-.01.4-.01.05 0 .09 0 .09.04 0 .02-.02.04-.07.04-.04 0-.08 0-.12.01-.11.03-.15.12-.15.35l-.05 2.56c0 .09-.02.13-.05.13-.05 0-.09-.04-.14-.09-.26-.24-.78-.77-1.2-1.19-.44-.44-.89-.94-.96-1.02h-.01l.05 1.7Zm3.7-1.16h.02c.14-.15.73-.75.85-.89.12-.13.2-.23.2-.3 0-.04-.02-.07-.06-.08-.03 0-.05-.02-.05-.04 0-.03.02-.04.06-.04.09 0 .31.01.42.01.12 0 .35-.01.47-.01.04 0 .07 0 .07.04s-.02.04-.06.04c-.08 0-.16.02-.24.04-.16.07-.31.17-.44.3-.13.12-.74.73-.88.88.15.19.94 1.05 1.1 1.2.18.17.36.35.58.44.08.04.16.06.25.06.03 0 .05 0 .05.03s-.02.04-.1.04h-.63c-.22-.02-.33-.11-.5-.26-.18-.16-.98-1.09-1.06-1.21l-.04-.06h-.02v.37c0 .37 0 .69.01.87 0 .11.04.2.15.22.07 0 .13.01.2.02.03 0 .05.01.05.03 0 .03-.03.04-.08.04-.23 0-.48-.01-.58-.01-.09 0-.35.01-.51.01-.05 0-.08-.01-.08-.04 0-.02.02-.03.07-.03s.1 0 .15-.02c.08-.02.1-.11.12-.22.02-.17.02-.49.02-.86v-1.57c0-.14-.04-.2-.17-.23-.05 0-.11-.01-.16-.01s-.07 0-.07-.04.03-.04.09-.04c.21 0 .47.01.57.01s.35-.01.49-.01c.06 0 .08 0 .08.04s-.02.04-.06.04c-.04 0-.08 0-.11.01-.11.02-.14.09-.15.23v1.04Zm4.81-.18v-.86c0-.14-.05-.21-.14-.23-.05-.01-.1-.02-.15-.02-.04 0-.06 0-.06-.04 0-.02.03-.03.1-.03.15 0 .41.01.53.01.1 0 .34-.01.5-.01.05 0 .09 0 .09.03s-.03.04-.07.04c-.04 0-.08 0-.12.01-.11.02-.14.09-.15.23v1.57c0 .39 0 .71.02.89.01.11.04.18.16.2.07 0 .14.02.21.02.05 0 .07.01.07.03 0 .03-.03.04-.08.04-.27 0-.52-.01-.63-.01-.09 0-.35.01-.51.01-.05 0-.08-.01-.08-.04 0-.02.02-.03.06-.03.05 0 .1 0 .15-.02.08-.02.1-.09.12-.2.02-.17.02-.49.02-.88v-.71Z"/><path class="c" d="M17.94 17.52c-.06-.03-.08-.05-.08-.14 0-.22.02-.47.02-.53 0-.06.01-.11.05-.11s.04.04.04.07c0 .07.02.14.04.21.07.26.31.43.58.41.36 0 .54-.25.54-.46 0-.2-.06-.39-.4-.65l-.19-.15c-.45-.35-.6-.63-.6-.96 0-.45.37-.77.94-.77.18 0 .36.02.54.07.04 0 .06.02.06.05 0 .05-.02.17-.02.49 0 .09-.01.12-.05.12-.03 0-.04-.03-.04-.07 0-.1-.04-.19-.11-.27a.501.501 0 0 0-.44-.2c-.3 0-.48.17-.48.42 0 .19.09.33.43.58l.11.08c.49.37.66.65.66 1.04 0 .29-.14.55-.38.71-.19.12-.42.17-.65.17-.2 0-.4-.03-.59-.11m2.54-1.13c0 .52 0 .8.09.87.07.06.17.09.49.09.22 0 .37 0 .47-.11.06-.07.09-.15.11-.24 0-.04.01-.06.05-.06.03 0 .03.02.03.07 0 .16-.03.31-.06.47-.02.09-.04.11-.25.11-.29 0-.5 0-.69-.01-.18 0-.33-.01-.5-.01h-.51c-.05 0-.08-.01-.08-.04 0-.02.02-.03.06-.03.05 0 .1 0 .15-.02.08-.02.1-.11.12-.22.02-.17.02-.49.02-.86v-1.57c0-.14-.04-.2-.18-.23-.04 0-.09-.01-.13-.01-.04 0-.07 0-.07-.04s.03-.04.09-.04c.19 0 .45.01.56.01.1 0 .39-.01.55-.01.06 0 .09 0 .09.04s-.03.04-.07.04c-.05 0-.11 0-.16.01-.11.02-.14.09-.15.23v1.57Z"/><path class="c" d="M22.66 16.51s-.03 0-.04.03l-.22.58c-.03.08-.05.16-.06.25 0 .07.04.13.16.13h.06c.05 0 .06 0 .06.03s-.02.04-.07.04c-.13 0-.3-.01-.43-.01-.05 0-.27.01-.48.01-.05 0-.08 0-.08-.04 0-.03.02-.03.05-.03h.13c.19-.02.26-.16.34-.37l1.02-2.55c.05-.12.07-.16.11-.16.04 0 .06.04.1.13.1.22.75 1.88 1.01 2.49.15.37.27.42.36.44.06.01.11.02.17.02.03 0 .05 0 .05.03s-.04.04-.19.04h-.77c-.07 0-.12 0-.12-.03s.01-.03.06-.04c.04-.01.05-.05.04-.09l-.33-.86s-.02-.03-.04-.03h-.9Zm.83-.2s.02-.01.02-.03l-.37-1s0-.04-.02-.04c-.01 0-.02.02-.02.04l-.37 1s0 .03.02.03h.75Z"/><path class="c" d="M25.32 14.52c.01-.07.04-.1.07-.1s.06.02.11.13l1.11 2.29 1.1-2.32c.03-.07.05-.1.09-.1s.06.04.07.13l.37 2.51c.04.25.08.37.2.41.08.03.17.04.25.04.04 0 .06 0 .06.03s-.05.05-.1.05c-.1 0-.66-.01-.82-.02-.09 0-.12-.02-.12-.04s.02-.03.04-.04c.02 0 .04-.06.02-.18l-.24-1.78h-.02l-.88 1.84c-.09.19-.11.23-.15.23s-.08-.08-.14-.2c-.1-.19-.42-.81-.47-.92-.04-.09-.28-.6-.42-.9h-.02l-.21 1.61c0 .06-.01.13-.01.19 0 .08.05.11.12.13.06.01.11.02.17.02.03 0 .06 0 .06.03 0 .04-.04.05-.1.05-.17 0-.35-.01-.43-.01s-.27.01-.4.01c-.04 0-.07 0-.07-.05 0-.02.02-.03.07-.03.04 0 .08 0 .12-.01.11-.02.15-.18.17-.32l.4-2.65Z"/></svg>