<?xml version="1.0" encoding="utf-8"?>
<!-- Generator: Adobe Illustrator 28.0.0, SVG Export Plug-In . SVG Version: 6.00 Build 0)  -->
<svg version="1.1" id="Layer_1" xmlns="http://www.w3.org/2000/svg" xmlns:xlink="http://www.w3.org/1999/xlink" x="0px" y="0px"
	 viewBox="0 0 32 32" style="enable-background:new 0 0 32 32;" xml:space="preserve">
<style type="text/css">
	.st0{fill:#FFFFFF;}
	.st1{fill:#F27A36;}
</style>
<rect class="st0" width="32" height="32"/>
<g>
	<path class="st1" d="M2.6,12.5c0.3,0,0.7,0,1,0c1.2,0,2.4,0,3.6,0c0.4,0,0.6-0.1,0.8-0.4c1.5-2.8,3.1-5.6,4.7-8.4
		c0.2-0.3,0.4-0.4,0.7-0.4c1.7,0,3.5,0,5.2,0c0.1,0,0.2,0,0.3,0c-0.2,0.3-0.3,0.5-0.4,0.8c-1.5,2.7-3,5.5-4.6,8.2
		c-0.2,0.4-0.2,0.7,0,1.1c0.8,1.4,1.6,2.8,2.4,4.2c0,0.1,0.1,0.1,0.1,0.3c-0.1,0-0.3,0-0.4,0c-3.4,0-6.8,0-10.1,0
		c-0.3,0-0.5-0.1-0.6-0.4c-0.9-1.6-1.8-3.1-2.6-4.7C2.8,12.7,2.7,12.7,2.6,12.5C2.6,12.6,2.6,12.6,2.6,12.5z"/>
	<path class="st1" d="M26.4,3.3c-0.1,0.2-0.2,0.4-0.3,0.6c-0.6,1.2-1.3,2.3-2,3.5c-0.2,0.3-0.2,0.5,0,0.8c1.7,2.9,3.4,5.8,5.1,8.6
		c0.1,0.2,0.2,0.4,0,0.6c-1,1.6-1.9,3.1-2.9,4.7c-0.1,0.1-0.1,0.2-0.2,0.3c-0.1-0.1-0.1-0.2-0.2-0.3c-1.7-3-3.4-6-5-9
		c-0.1-0.2-0.3-0.3-0.5-0.3c-1.6,0-3.3,0-4.9,0c-0.1,0-0.2,0-0.4,0c0.1-0.2,0.1-0.3,0.2-0.3c1.6-3,3.3-5.9,4.9-8.9
		c0.1-0.2,0.2-0.3,0.4-0.3c1.9,0,3.7,0,5.6,0C26.3,3.3,26.3,3.3,26.4,3.3z"/>
	<path class="st1" d="M6.3,19c0.2,0,0.3,0,0.4,0c3.3,0,6.7,0,10,0c0.4,0,0.6-0.1,0.8-0.5c0.8-1.4,1.6-2.7,2.3-4.1
		c0.1-0.1,0.1-0.2,0.2-0.4c0,0,0.1,0.1,0.1,0.1c1.7,3,3.4,6,5,9c0.2,0.3,0.2,0.5,0,0.8c-0.9,1.5-1.8,2.9-2.7,4.4
		c-0.1,0.1-0.1,0.2-0.2,0.3c-0.1-0.1-0.1-0.2-0.2-0.3c-0.7-1.3-1.4-2.5-2.1-3.8c-0.2-0.3-0.4-0.4-0.7-0.4c-3.2,0-6.4,0-9.6,0
		c-0.4,0-0.6-0.1-0.8-0.5c-0.8-1.5-1.7-3.1-2.5-4.6C6.3,19.1,6.3,19.1,6.3,19z"/>
</g>
</svg>
