<?xml version="1.0" encoding="utf-8"?>
<!-- Generator: Adobe Illustrator 28.0.0, SVG Export Plug-In . SVG Version: 6.00 Build 0)  -->
<svg version="1.1" id="Layer_1" xmlns="http://www.w3.org/2000/svg" xmlns:xlink="http://www.w3.org/1999/xlink" x="0px" y="0px"
	 viewBox="0 0 32 32" style="enable-background:new 0 0 32 32;" xml:space="preserve">
<style type="text/css">
	.st0{fill:#FFFFFF;}
	.st1{fill:#A71F33;}
</style>
<rect class="st0" width="32" height="32"/>
<g>
	<path class="st1" d="M16,28.9C8.8,28.9,3,23.1,3.1,16C3.1,8.9,8.9,3.1,16,3.1c7.2,0,12.9,5.8,12.9,13C29,23.2,23.2,28.9,16,28.9z
		 M17.4,26.1c5.1-0.4,9.1-5.3,8.8-10.9C26,10.7,21.6,5.9,17.5,6c0,1.6,0,3.2,0,4.8c0.6,0,1.1,0,1.7,0c1.6,0.1,2.8,1.2,2.9,2.7
		c0.1,1.7,0.1,3.3,0,5c-0.1,1.6-1.3,2.7-3,2.7c-0.3,0-0.7-0.1-1,0c-0.2,0.1-0.6,0.4-0.6,0.6C17.4,23.2,17.4,24.6,17.4,26.1z M14.5,6
		c-4.3,0-8.7,4.9-8.8,9.9C5.7,21,9.9,26,14.5,26.1c0-1.6,0-3.2,0-4.8c-0.5,0-1,0-1.4,0c-1.9,0-3.1-1.2-3.1-3.1c0-1.5,0-2.9,0-4.4
		c0-1.7,1.3-2.9,2.9-2.9c0.5,0,1.1,0,1.7,0C14.5,9.1,14.5,7.6,14.5,6z M12.6,18.6c2.2,0,4.2,0,6.3,0c0.2,0,0.6-0.4,0.6-0.7
		c0.1-1.2,0-2.4,0-3.6c0-0.6-0.2-0.8-0.8-0.8c-1.8,0-3.6,0-5.4,0c-0.2,0-0.7,0.4-0.7,0.6C12.5,15.5,12.6,17,12.6,18.6z"/>
</g>
</svg>
