<svg xmlns="http://www.w3.org/2000/svg" viewBox="0 0 32 32" style="enable-background:new 0 0 32 32" xml:space="preserve"><path style="fill:#f9bb18" d="M0 0h32v32H0z"/><path d="M16 4.8c6.2 0 11.2 5 11.2 11.2s-5 11.2-11.2 11.2S4.8 22.2 4.8 16c0-6.2 5-11.2 11.2-11.2m0-1C9.3 3.8 3.8 9.3 3.8 16S9.3 28.2 16 28.2c6.7 0 12.2-5.5 12.2-12.2 0-6.7-5.5-12.2-12.2-12.2z"/><path d="M10.7 11.7c.1-.5.3-1 .7-1.4 1.2-.9 2.6-1.6 4-2h.6v.2c0 .1-.1.2-.1.3.4 0 .7-.2.8-.6.1-.4.4-1.8.8-1.7 1.3.1 2.1 4.1 2.1 4.3-.1.1-.6 0-.6 0 .8 1.2 1.8 1.2 2 1 .2-.2.1-.8.1-.8 2.5 1.5 2.3 3.2 2.3 3.2.7-2.9-1-4.1-1-4.1.5 0 1 .2 1.4.4-1-1.4-3.2-2.2-3.2-2.2s-2.5-2.8-3.3-2.7c-.7.1-1 1.3-1.2 2.1h-.5c-.2-.2-.9-1.1-1.2-.8-.1.4-.2.8-.2 1.2-1.2.5-3.3 1.4-3.7 2-.2.3-.4.7-.5 1.1 0 0-2.5 1.6-3.1 3.3 1.2-1.1 2.5-2 3.8-2.8z"/><path d="M18.7 10.4c0-1.3-.7-2.3-1-2.4-.3-.1-.4 1.2-.4 1.2.5.4.9.8 1.4 1.2zM12.6 10.2c-.5.3-.3.6-.3.6s-.1-.3.5-.4c1.1-.3 2.1-.6 2-.9 0-.3-.8-.4-.8-.4.4.3-.9.8-1.4 1.1zM11.1 15.5s0-.7-.6-.5c-1 .2-1.4 2-1.4 2 1.2-2.1 2-1.5 2-1.5zM11.5 17.1c.6-.9-.1-1.5-1-1-.6.4-.9 1-1.1 1.6 1.8-1.8 2.1-.6 2.1-.6zM9.3 15.4c.6-1 1.3-1 1.3-1-.8-.6-1.3 1-1.3 1zM19.6 15.9c-.4-.4-.6-1-.6-1.6.1-1 .3-2.5-1.5-3.6.4.6.6 1.4.4 2.2-.3 1.1-1.1 2.9-1.1 3.5.2 1.3 1.5 1.6 1.4 3.4.5-.6.7-1.4.7-2.1-.2-1.2-1.2-1.7-.7-2.6.5.4.9.7 1.4.8z"/><path d="M17.4 11.5s-1.2-.7-1.7 0c-.5.6-.2 1.7-.5 2.4-.6-.6-1.4.4-1.6.7-.1.2-.2.3-.3.3-1.4.3-1.1-.8-1.6-1.2s-1.3.2-1.3.2c.8-.1 1 .4 1 .6 0 .4.1.8.4 1.2.2.4 1.1.1 1.8.2s1.1.9 1.1.9c.4-1.1-.7-1.5-.7-1.5s.3-.6.7-.4c1.3.7 1 3.6 1 3.6 1.1-2.1.6-3.3 0-4 .2-.7.5-2.7 1.7-3z"/><path d="M25.6 13.9c-.2-1-.6-1.9-1-2.8 0 0 1.5 4.1-.2 7.8 0-.6-.1-1.1-.3-1.6-.4-.9-.4-1.9-.1-2.9-.5.6-.8 1.4-.8 2.2 0 1.4.4 5.3-2.4 6.7.6-1.3.9-2.8.7-4.2.3.1.5.3.6.6.4-1.5.4-3-.2-4.4.3.1.6.2.9.4 0 0 .4-1.8-1.6-3-.4-.3-.4-.4-.4-.5-.1.3 0 .6.2.8.3.4.8 1.2.7 1.6-.4-.2-.9-.3-1.3-.3 0 0 1.5 1.3 1.3 4-.4-.3-.8-.5-1.3-.6 0 0 1.1 2 .1 4 0-.4-.2-.8-.4-1.1-.2 1-1 1.7-2 1.9 0 0 1.4-1.7-.3-2.6-1.7-.9-3 1.1-3.3 2.8 0 0-1.9.1-2.1-.6-.1-.4 0-.9.4-1.1 0 0 .3.2 1-.1.7-.3 2.1-1.2 1.9-2.2s-1.8-2.1-3.1-1.7c-1.3.4-2.1 1.6-2.8 1.6-.7 0-1.5-1.1-1.4-1.6.1-.6.6-.7.7-1.6-.1 0-.3 0-.4-.1-.5-.3-.7-.4-1-.4l-.8.4c0-.2 0-.3.1-.5 0 0-.6.7-.5.9.3.5.7 1 1.2 1.3.1.6.4 1.1.8 1.6.3.4.7.5 1.2.5.3.5.9.9 1.5 1-.2-.6-.2-1.1-.2-1.7 0 0 .1 0 .1-.1.1-.1 1.6-1.5 2.7-.2-.3.2-.6.4-.7.8-.2.6-.3 2.2-1.9 1.2-.1.5.1 1 .4 1.4 0 .6.4 1.2 1 1.5 1.1.5 1.8.1 2.5.5 0-.8.1-1.6.5-2.3.6-.9 1.4-1.1 1.8-.8.4.3.7 1.6-.9 2.9 0 0 1.8.2 3-.7-.2 1.1-.6 2.2-1.4 3 5.3-1.1 8.7-6.4 7.5-11.7zM7.9 16.6c-.1 0-.1 0-.2-.1l-.1-.1-.1-.1c-.1-.1-.2-.2-.2-.3-.1-.1-.1-.2-.1-.2-.1-.1.4-.4.6-.4h.1c.1 0 .2 0 .2.1s-.3.3-.4.4c0 .1.3.4.3.4.1.1.1.3-.1.3zm2.8 2.9c-.3-.2-.5-.4-.6-.7.1 0 .1-.1.2-.1.1-.1.2-.2.4-.2v.5c-.1.2-.1.4 0 .5zm2.8-.1s.5 0 .6-.1c0-.2-.1-.5-.2-.7 0 0 .7.1.7.3 0 .2-.4.8-1.2 1.1.1-.1.1-.3.1-.6zM12 21.1c0 .1-.1.1-.1.2h-.1c-.2-.1-.3-.6-.3-.6.1.1.2.1.3.1.1 0 .2 0 .4.1-.1 0-.1.1-.2.2zM20.6 12.3z"/><path d="M16.8 9.9c0-.4-1-.8-1.4-.7 0 0 .4.2.4.4 0 .3-1.3.8-1.3 1.5h-.8c-.4-.1-.7 0-1.1.2-.4.2-.4-.3-.4-.4 0 0-.7.4.2 1-.1.1-.3.3-.4.5 0 .1-.2.6.2.7 0 0 .3-.7.5-.8.2.1.4.1.6 0 .2-.1.6-.6.8-.6 0 0-.4 1.8-2.1 1.8 0 0 1.2.7 1.9.2.6-.5.1-.9 1-1.7.8-.8.3-.8.2-.8-.1 0-.2 0-.3-.1l.3-.3c.3 0 1.7-.6 1.7-.9zm-3.3 1.9c-.1.2-.2.2-.4.2H13h.1c.1 0 .3-.1.3-.3 0-.1 0-.2-.1-.2h.6c-.1-.1-.2.1-.4.3z"/></svg>