<?xml version="1.0" encoding="utf-8"?>
<!-- Generator: Adobe Illustrator 28.0.0, SVG Export Plug-In . SVG Version: 6.00 Build 0)  -->
<svg version="1.1" id="Layer_1" xmlns="http://www.w3.org/2000/svg" xmlns:xlink="http://www.w3.org/1999/xlink" x="0px" y="0px"
	 viewBox="0 0 32 32" style="enable-background:new 0 0 32 32;" xml:space="preserve">
<style type="text/css">
	.st0{fill:#FFFFFF;}
	.st1{fill-rule:evenodd;clip-rule:evenodd;fill:#DE2727;}
</style>
<polygon class="st0" points="0,32 32,32 32,0 0,0 "/>
<g>
	<path class="st1" d="M11,11.9L5.6,8.3c0.9-1.2,1.9-2.2,3.2-3l4.6,4.8C12.5,10.5,11.6,11.1,11,11.9z"/>
	<path class="st1" d="M9.6,15.3L3.4,13c0.3-1.4,0.9-2.8,1.7-4.1l5.5,3.4C10,13.2,9.7,14.2,9.6,15.3L9.6,15.3z"/>
	<path class="st1" d="M16.9,18.1l-6.6-2.5c0.2-1,0.6-2,1.2-2.8l5.4,3.4V18.1L16.9,18.1z"/>
	<path class="st1" d="M16.9,15.9l-5.1-3.4c0.6-0.7,1.4-1.3,2.4-1.7l2.8,2.8V15.9z"/>
	<path class="st1" d="M3.8,20.3c-0.5-1.4-0.7-2.8-0.7-4.3c0-0.8,0.1-1.7,0.2-2.5l6.3,2.2V16c0,1.5,0.5,2.9,1.4,4H11
		c-0.6-1-0.9-2.1-0.9-3.3c0-0.2,0-0.5,0.1-0.7l6.7,2.4v1.9L3.8,20.3L3.8,20.3z"/>
	<path class="st1" d="M4.2,21.5c-0.1-0.3-0.2-0.5-0.3-0.7h3.9l0.7,0.7h5.8L13,22.8H5.9C5.7,22,5,21.5,4.2,21.5z"/>
	<path class="st1" d="M19,21.8c0.4-0.3,0.9-0.5,1.2-0.9c0.3-0.2,0.5-0.4,0.7-0.7c2.4-2.7,2.1-6.8-0.6-9.1c-1.2-1-2.7-1.6-4.3-1.6h0
		c-0.7,0-1.4,0.1-2.1,0.4l-4.5-5c2-1.2,4.3-1.8,6.6-1.8c7.1,0,12.9,5.7,12.9,12.9c0,0,0,0,0,0c0,0,0,0.1,0,0.1
		c0,7.1-5.8,12.9-12.9,12.9c-3.4,0-6.7-1.4-9.2-3.8h15.9l0.1-0.1L6.2,24.4L6,24.2h17.7l0.1-0.1L5.3,23.2l-0.1-0.1h7.2
		C12.4,23.2,16.1,23.3,19,21.8L19,21.8z"/>
</g>
</svg>
