<?xml version="1.0" encoding="utf-8"?>
<!-- Generator: Adobe Illustrator 28.0.0, SVG Export Plug-In . SVG Version: 6.00 Build 0)  -->
<svg version="1.1" id="Layer_1" xmlns="http://www.w3.org/2000/svg" xmlns:xlink="http://www.w3.org/1999/xlink" x="0px" y="0px"
	 viewBox="0 0 32 32" style="enable-background:new 0 0 32 32;" xml:space="preserve">
<style type="text/css">
	.st0{fill:#6BC9E8;}
	.st1{fill:#EF3E42;}
	.st2{fill:#0067B1;}
</style>
<rect x="0" class="st0" width="32" height="32"/>
<g id="layer1" transform="translate(0,-1000.0022)">
	<g id="g140" transform="matrix(1.25,0,0,-1.25,141.66093,1028.0156)">
		<path id="path142" class="st1" d="M-91.9,9.6l-2.5-2.5l-2.5,2.5l2.5,2.5L-91.9,9.6z"/>
	</g>
	<g id="g144" transform="matrix(1.25,0,0,-1.25,2.2578028,1050.3888)">
		<path id="path146" class="st2" d="M2.3,24.7l0.6,3.9c0.1,0.9,1,1.6,2,1.6c1,0,1.5-0.7,1.4-1.4l-0.1-0.6c-0.1-0.5-0.4-0.9-1-1.3
			L5.8,26c0.1-0.1,0.1-0.3,0.1-0.5c-0.1-0.4-0.4-0.8-0.7-0.8c-0.2,0-0.3,0.1-0.4,0.3l-0.9,1.6l-0.2-1.1c-0.1-0.4-0.4-0.7-0.7-0.7
			H2.3z M4.6,29.5c-0.2,0-0.4-0.2-0.4-0.5L4,27.8c0-0.3,0.1-0.5,0.3-0.5c0.2,0,0.4,0.2,0.4,0.5L4.9,29C4.9,29.3,4.8,29.5,4.6,29.5"
			/>
	</g>
	<g id="g148" transform="matrix(1.25,0,0,-1.25,39.099303,1012.6948)">
		<path id="path150" class="st2" d="M-22.6-0.7c0.1,0.5,0.4,0.9,0.8,0.9c0.4,0,0.6-0.4,0.6-0.9l-0.3-2h0.8l0.3,2
			c0.1,0.5,0.4,0.9,0.8,0.9c0.4,0,0.6-0.4,0.6-0.9l-0.5-3.8C-19.6-5-20-5.4-20.3-5.4c-0.4,0-0.6,0.4-0.6,0.9l0.2,1.2h-0.8l-0.2-1.2
			c-0.1-0.5-0.4-0.9-0.8-0.9h-0.7L-22.6-0.7z"/>
	</g>
	<g id="g152" transform="matrix(1.25,0,0,-1.25,99.155813,1018.4835)">
		<path id="path154" class="st2" d="M-63.1,3.2c-0.1-0.4-0.3-0.7-0.6-1.1c0.2-0.3,0.3-0.6,0.3-0.9l-0.1-0.3c-0.1-0.9-1-1.6-2-1.6
			h-1.5l0.6,3.9c0.1,0.9,1,1.6,2,1.6c1,0,1.5-0.7,1.4-1.4L-63.1,3.2z M-65,1.9c-0.2,0-0.5-0.2-0.5-0.6l-0.1-0.8
			c0-0.3,0.1-0.6,0.4-0.6c0.2,0,0.5,0.2,0.5,0.6l0.1,0.8C-64.6,1.7-64.8,1.9-65,1.9 M-64.7,3.9c-0.2,0-0.5-0.2-0.5-0.6l-0.1-0.5
			c-0.1-0.3,0.1-0.6,0.4-0.6c0.2,0,0.5,0.2,0.5,0.6l0.1,0.5C-64.3,3.7-64.5,3.9-64.7,3.9"/>
	</g>
</g>
</svg>
