<?xml version="1.0" encoding="utf-8"?>
<!-- Generator: Adobe Illustrator 28.0.0, SVG Export Plug-In . SVG Version: 6.00 Build 0)  -->
<svg version="1.1" id="Layer_1" xmlns="http://www.w3.org/2000/svg" xmlns:xlink="http://www.w3.org/1999/xlink" x="0px" y="0px"
	 viewBox="0 0 32 32" style="enable-background:new 0 0 32 32;" xml:space="preserve">
<style type="text/css">
	.st0{fill:#FFFFFF;}
	.st1{fill-rule:evenodd;clip-rule:evenodd;fill:#38D200;}
	.st2{fill-rule:evenodd;clip-rule:evenodd;fill:#0473EA;}
</style>
<polygon class="st0" points="0,32 32,32 32,0 0,0 "/>
<g>
	<path id="Fill-1" class="st1" d="M20.3,27.9L10,21.2c0,0-1.3-0.7-1.6-2.1c-0.4-1.9,1-3.6,1-3.6l13.4,8.7c1,0.7,1.3,2.1,0.6,3.1
		C22.7,28.3,21.3,28.6,20.3,27.9"/>
	<path id="Fill-4" class="st2" d="M10.5,14c0,0-1.6-1-1.6-3.2c0-2.2,1.6-3.1,1.6-3.1l5.6-3.7c1-0.7,2.4-0.4,3.1,0.6
		c0.7,1,0.4,2.4-0.7,3.1l-4.7,3.1l8.1,5.3c0,0,1.5,0.8,1.7,2.2c0.4,2-1,3.6-1,3.6L10.5,14z"/>
	<path id="Fill-7" class="st1" d="M21.1,8.7c-0.5,0-0.9,0.2-1.3,0.4l-2.8,1.8l2.8,1.8c0.4,0.2,0.8,0.4,1.3,0.4c1.2,0,2.2-1,2.2-2.2
		S22.3,8.7,21.1,8.7"/>
	<path id="Fill-9" class="st2" d="M10.5,28.3c0.5,0,0.9-0.2,1.3-0.4l2.8-1.8l-2.8-1.8c-0.4-0.2-0.8-0.4-1.3-0.4
		c-1.2,0-2.2,1-2.2,2.2C8.3,27.3,9.3,28.3,10.5,28.3"/>
</g>
</svg>
