<?xml version="1.0" encoding="utf-8"?>
<!-- Generator: Adobe Illustrator 28.0.0, SVG Export Plug-In . SVG Version: 6.00 Build 0)  -->
<svg version="1.1" id="Layer_1" xmlns="http://www.w3.org/2000/svg" xmlns:xlink="http://www.w3.org/1999/xlink" x="0px" y="0px"
	 viewBox="0 0 32 32" style="enable-background:new 0 0 32 32;" xml:space="preserve">
<style type="text/css">
	.st0{fill:#FFFFFF;}
	.st1{fill:#EC1C23;}
</style>
<rect x="0" class="st0" width="32" height="32"/>
<g>
	<path class="st1" d="M3.9,15.4C3.9,15,4,14.6,4.1,14.3c0.7-2.8,3-4.9,5.9-5.3c3.9-0.5,7.4,2.1,8,5.9c0,0.3,0.1,0.5,0.1,0.8
		c0,2.4,0,4.7,0,7.1c0,0.1,0,0.1,0,0.2c-1.4,0-2.8,0-4.3,0c0-0.1,0-0.2,0-0.3c0-2.2,0-4.5,0-6.7c0-1.4-1.1-2.6-2.4-2.8
		c-1.5-0.2-2.8,0.7-3.1,2.1C7.9,17,9,18.6,10.7,18.8c0.8,0.1,1.5-0.1,2.1-0.7c0.1-0.1,0.1-0.1,0.2-0.2c0,0.1,0,0.2,0,0.3
		c0,1.4,0,2.9,0,4.3c0,0.2-0.1,0.3-0.3,0.3c-4,1.1-8.2-1.6-8.8-5.7c0-0.2-0.1-0.4-0.1-0.6C3.9,16.2,3.9,15.8,3.9,15.4z"/>
	<path class="st1" d="M20.1,18.6c0.8,0.3,1.6,0.2,2.4-0.2c0.6-0.3,1-0.8,1.2-1.4c0.5-1.3,0-2.7-1.2-3.4c-1.3-0.8-2.6-0.5-3.9,1
		c-0.3-1.6-1-2.9-2.1-4c2.2-2,6-2.3,8.8-0.2c2.8,2.1,3.7,6,2,9.1c-1.6,3-4.9,4-7.2,3.6C20.1,21.5,20.1,20.1,20.1,18.6z"/>
</g>
</svg>
