<?xml version="1.0" encoding="utf-8"?>
<!-- Generator: Adobe Illustrator 28.0.0, SVG Export Plug-In . SVG Version: 6.00 Build 0)  -->
<svg version="1.1" id="Layer_1" xmlns="http://www.w3.org/2000/svg" xmlns:xlink="http://www.w3.org/1999/xlink" x="0px" y="0px"
	 viewBox="0 0 32 32" style="enable-background:new 0 0 32 32;" xml:space="preserve">
<style type="text/css">
	.st0{fill:#FFFFFF;}
	.st1{fill:#26366F;}
</style>
<rect class="st0" width="32" height="32"/>
<path class="st1" d="M25.3,20.6c0.1-0.6,0-1.2-0.1-1.7c-0.1-0.3-0.2-0.5-0.3-0.8c-0.4-0.8-1.1-1.5-1.9-2c-0.8-0.5-1.6-0.8-2.5-1.2
	c-0.5-0.3-0.9-0.6-1.3-0.9l-0.5,0.4c0.5,0.2,1.1,0.4,1.6,0.7c1.1,0.5,2.1,1.3,2.7,2.3c0.5,0.8,0.8,1.6,0.8,2.5c0,0.2,0,0.4,0,0.6
	l0,0.1c-0.9-0.1-1.9,0-2.8,0c0.2-1.1-0.2-2.3-0.9-3.1c-0.8-1-1.8-1.7-3-2.1c0,0-0.1,0-0.1,0l-0.4,0.2c1.4,0.9,2.6,2.2,2.8,3.9
	c0.1,0.4,0.1,0.8,0,1.2c-2.3-0.1-4.5,0-6.8,0c0-0.4-0.1-0.6-0.1-1c0.2-1.7,1.3-3.2,2.8-4.1l-0.4-0.2c-1.2,0.5-2.3,1.2-3.1,2.2
	c-0.3,0.5-0.6,1-0.7,1.5c-0.1,0.5-0.1,1-0.1,1.6c-0.8,0-1.6,0-2.5,0c-0.1,0-0.1,0-0.2,0c-0.2-1.2,0.1-2.3,0.8-3.3
	c0.6-1,1.6-1.7,2.6-2.2c0.5-0.2,1-0.4,1.5-0.7L12.8,14c-0.4,0.3-0.8,0.6-1.3,0.9c-0.8,0.4-1.5,0.6-2.2,1.1c-1.1,0.6-2,1.6-2.4,2.8
	c-0.2,0.6-0.2,1.2-0.1,1.7c-0.1,0-0.2,0-0.3,0.1c-0.8,0-1.6,0-2.4,0C4,20,4,19.4,4.2,18.8c0.4-1.4,1.4-2.6,2.6-3.3
	c0.7-0.4,1.5-0.7,2.2-1.1c0.8-0.4,1.6-1,2-1.8c0.2-0.3,0.3-0.7,0.3-1c0,0,0-0.1,0.1-0.1H12c0.1,0.7,0.3,1.3,0.8,1.7
	c0.4-0.5,0.7-1.1,0.8-1.7l0.5,0c0.1,0.7,0.4,1.3,0.8,1.8c0.2-0.2,0.4-0.5,0.5-0.8c0.2-0.4,0.2-0.6,0.3-1h0.5
	c0.1,0.6,0.3,1.3,0.8,1.7c0.4-0.5,0.7-1.1,0.8-1.7h0.5c0.1,0.6,0.3,1.2,0.8,1.7c0.4-0.5,0.7-1.1,0.7-1.7h0.5
	c0.1,0.9,0.6,1.7,1.3,2.2c0.3,0.3,0.7,0.5,1.1,0.7c0.8,0.4,1.6,0.7,2.4,1.2c1.2,0.8,2.2,2,2.6,3.4c0.1,0.4,0.1,0.7,0.2,1.1
	c0,0.2,0,0.3-0.1,0.5C27,20.5,26.2,20.6,25.3,20.6z M14.9,14.7l0.5-0.2L15,14l-0.5,0.4C14.6,14.5,14.8,14.6,14.9,14.7z M17,14.6
	L17,14.6c0.2-0.1,0.4-0.1,0.6-0.2L17.1,14l-0.6,0.4C16.7,14.5,16.8,14.6,17,14.6L17,14.6z M15.9,15.1c0.1,0,0.3-0.1,0.4-0.2L16,14.8
	L15.6,15C15.7,15,15.8,15.1,15.9,15.1L15.9,15.1z M25.9,20l1.5,0c0-0.1,0-0.1,0-0.2c0-0.4-0.1-0.9-0.3-1.3c-0.4-1.1-1.3-2-2.4-2.6
	c-0.7-0.4-1.5-0.7-2.2-1.1c-1-0.5-1.8-1.3-2.3-2.3c-0.2,0.3-0.4,0.7-0.6,1c0.3,0.3,0.7,0.6,1.2,0.8c0.8,0.4,1.6,0.7,2.4,1.2
	c0.5,0.3,1,0.7,1.4,1.1C25.3,17.5,25.9,18.8,25.9,20z M18.1,14L18.1,14l0.7-0.5c-0.2-0.3-0.4-0.6-0.6-0.9c-0.2,0.3-0.4,0.7-0.6,1
	C17.7,13.7,17.9,13.9,18.1,14z M15.4,13.6l0.6,0.5c0.2-0.2,0.5-0.3,0.7-0.5c-0.3-0.3-0.5-0.6-0.6-1C15.9,12.9,15.6,13.3,15.4,13.6
	L15.4,13.6z M21.6,20l1.7,0c0-0.2,0-0.5-0.1-0.7c-0.1-0.3-0.2-0.7-0.3-1c-0.5-1.1-1.4-1.9-2.5-2.5c-0.7-0.4-1.5-0.6-2.2-1l-0.4,0.2
	c0.5,0.3,1.1,0.6,1.6,1C20.5,16.8,21.7,18.4,21.6,20L21.6,20z M13.8,14.1L13.8,14.1l0.7-0.5c-0.3-0.3-0.5-0.6-0.7-1
	c-0.2,0.3-0.4,0.7-0.7,1C13.4,13.8,13.6,13.9,13.8,14.1L13.8,14.1z M6.1,20h0.1c0-0.4,0-0.7,0.1-1.1c0.3-1.4,1.3-2.6,2.5-3.4
	c0.8-0.5,1.6-0.8,2.5-1.2c0.4-0.2,0.8-0.5,1.1-0.8c-0.3-0.3-0.5-0.6-0.7-1c-0.5,1-1.4,1.8-2.4,2.4C8.5,15.3,7.8,15.5,7,16
	c-0.3,0.2-0.7,0.5-1,0.8c-0.8,0.8-1.5,1.9-1.4,3.1c0,0,0,0.1,0,0.1C5.1,20,5.6,20,6.1,20z M9,20l1.5,0c0-0.5,0.1-1.1,0.3-1.6
	c0.7-1.6,1.8-2.7,3.5-3.4c-0.1,0-0.3-0.1-0.4-0.2c-0.7,0.4-1.5,0.6-2.2,1.1c-0.3,0.2-0.6,0.4-0.9,0.6C9.7,17.3,8.9,18.7,9,20L9,20z
	 M13.1,20h5.8c0-0.3-0.1-0.7-0.2-1c-0.4-1.4-1.5-2.6-2.8-3.3c-0.5,0.3-1,0.6-1.4,1C13.7,17.6,13,18.8,13.1,20L13.1,20z"/>
</svg>
