<?xml version="1.0" encoding="utf-8"?>
<!-- Generator: Adobe Illustrator 28.0.0, SVG Export Plug-In . SVG Version: 6.00 Build 0)  -->
<svg version="1.1" id="Layer_1" xmlns="http://www.w3.org/2000/svg" xmlns:xlink="http://www.w3.org/1999/xlink" x="0px" y="0px"
	 viewBox="0 0 32 32" style="enable-background:new 0 0 32 32;" xml:space="preserve">
<style type="text/css">
	.st0{fill:#FFFFFF;}
	.st1{fill:#2E3191;}
	.st2{fill:#EC1C24;}
</style>
<rect x="0" class="st0" width="32" height="32"/>
<g>
	<g>
		<path class="st1" d="M16.2,4.6c0,0,1.8,3.7,9.3,5.8v2.6c0,0-5.5,0.4-11.8-6.9L16.2,4.6z"/>
		<path class="st1" d="M12.3,6.7c0,0,5.2,7.4,13.4,8v2.7c0,0-8.8,0-15.6-9.2L12.3,6.7z"/>
		<path class="st1" d="M8.6,9c0,0,5.6,8.9,16.9,10.1v2.7c0,0-11.6-0.6-19.3-11.4L8.6,9z"/>
	</g>
	<g>
		<path class="st2" d="M16.2,27.4c0,0,1.8-3.6,9.3-5.7v-2.6c0,0-5.5-0.4-11.8,6.9L16.2,27.4z"/>
		<path class="st2" d="M12.3,25.3c0,0,5.2-7.4,13.4-8v-2.7c0,0-8.8,0-15.6,9.2L12.3,25.3z"/>
		<path class="st2" d="M8.6,23c0,0,5.6-9,16.9-10.1v-2.7c0,0-11.6,0.6-19.3,11.4L8.6,23z"/>
	</g>
</g>
</svg>
