<svg xmlns="http://www.w3.org/2000/svg" viewBox="0 0 32 32" style="enable-background:new 0 0 32 32" xml:space="preserve"><path style="fill:#fff" d="M1.8 30.3h28.5V1.7H1.8z"/><path d="M32 28.9c0 1.7-1.4 3.1-3.1 3.1H3.2C1.5 32 0 30.6 0 28.9V3.1C0 1.4 1.5 0 3.2 0h25.7C30.6 0 32 1.4 32 3.1v25.8zM13.4 10.4h-2.9v2.9h2.9v-2.9zm-3 8.4h8.4v-8.4h-2.1v6.3h-6.3v2.1zm3.2-1.1c0 .3-.2.5-.5.5s-.6-.2-.6-.5.2-.6.6-.6c.2.1.5.3.5.6zm1.5 0c0 .3-.2.5-.5.5s-.6-.2-.6-.5.2-.6.6-.6c.2.1.5.3.5.6zm2.6.4c-.4 0-.6-.2-.6-.4s.3-3.1.3-3.1-.3-.3-.3-.8c0-.6.6-1.3.6-1.3s.7.7.7 1.3c0 .6-.3.8-.3.8s.3 2.8.3 3.1c0 .3-.3.4-.7.4zm-7.3 3.5h11.2V10.4h-2.1v9.2h-9.2v2zm10.5-5.2c.2 0 .3.1.3.3 0 .2-.1.3-.3.3h-.1s.3 3.9-.2 3.9c-.6 0-.2-3.9-.2-3.9h-.1c-.2 0-.3-.1-.3-.3 0-.2.1-.3.3-.3v-2.2c-.2 0-.3-.1-.3-.3 0-.2.1-.3.3-.3h.1l-.1-.8c0-.2.1-.3.3-.3.2 0 .3.1.3.3l-.1.8h.1c.2 0 .3.1.3.3 0 .2-.1.3-.3.3v2.2zm-6 3.5s-.3.1-.3.3c0 .2.4.2.4.2s-.1.4-.4.4h-2s.4-.4.7-.4h.5c0 .1.2-1.1 1.1-.5zm3.1.8c0-.1.3-.5 1-.5s1 .4 1 .5c0 .1-.4.1-1 .1 0 0-1 0-1-.1zm-7.6-4.8H16v-5.5h-1.8v3.7h-3.7v1.8zm5.2-2.3c0 .3-.2.6-.5.6s-.6-.2-.6-.6c0-.3.2-.5.6-.5.3-.1.5.2.5.5zm-2 1.4c0 .3-.2.6-.5.6s-.6-.2-.6-.6c0-.3.2-.6.6-.6.2.1.5.3.5.6zm1.3-.4c0 .2-.1.3-.3.3-.2 0-.3-.1-.3-.3 0-.2.1-.3.3-.3.1 0 .3.2.3.3zm.8 0c0 .2-.1.3-.3.3-.2 0-.3-.1-.3-.3 0-.2.1-.3.3-.3.2 0 .3.2.3.3zM4.1 16.7c-.2-.2-.3-.5-.3-.7 0-.3.1-.6.3-.8l7.6-7.6H9.2L2.9 14c-.5.5-.8 1.2-.8 2s.3 1.5.8 2l1.8 1.8v-2.5l-.6-.6zM15.3 4.1c.2-.2.5-.3.7-.3.3 0 .6.1.7.3l7.6 7.6V9.2L18 2.8c-.5-.5-1.2-.8-2-.8s-1.5.3-2 .8l-1.8 1.8h2.5l.6-.5zM30 16c0-.8-.3-1.5-.8-2l-1.8-1.8v2.5l.6.6c.2.2.3.5.3.8 0 .3-.1.6-.3.7l-7.6 7.6h2.5l6.4-6.4c.4-.5.7-1.2.7-2zM16.8 27.9c-.4.4-1.1.4-1.5 0l-7.6-7.6v2.5l6.4 6.4c1.1 1.1 2.9 1.1 4 0l1.8-1.8h-2.5c-.4.3-.6.5-.6.5zM7.1 8.1c0-.3.1-.5.3-.7.2-.3.5-.4.7-.4h10.7l-1.7-1.7h-9c-.7 0-1.5.3-2 .8s-.8 1.2-.8 2v2.6L7 9v-.9zM24 7c.3 0 .5.1.7.3.2.2.3.5.3.8v10.7l1.7-1.7v-9c0-.7-.3-1.5-.8-2s-1.2-.8-2-.8h-2.6L23.1 7h.9zm1.9 18.9c.5-.5.8-1.2.8-2v-2.6L25 23.1v.8c0 .3-.1.5-.3.7-.2.3-.5.4-.7.4H13.3l1.7 1.7h9c.7 0 1.4-.3 1.9-.8zM8.1 25c-.6 0-1.1-.5-1.1-1.1V13.2l-1.7 1.7v9c0 1.5 1.3 2.8 2.8 2.8h2.6L9 25h-.9z" style="fill:#008541"/></svg>