<svg width="32" height="32" viewBox="0 0 32 32" fill="none" xmlns="http://www.w3.org/2000/svg">
<rect width="32" height="32" fill="white"/>
<g clip-path="url(#clip0_906_212)">
<path d="M3.0106 19.9194C3.00966 19.2581 3.00876 18.5969 3.00791 17.9356C3.00764 13.0282 3.00631 8.12091 3.00391 3.21357C3.00375 3.04625 3.04286 2.99966 3.21453 3C6.03926 3.00571 8.86399 3.00621 11.6887 3.0015C11.746 2.99897 11.8032 3.00904 11.8562 3.03101C11.9091 3.05297 11.9567 3.0863 11.9954 3.12863C13.2423 4.38154 14.4919 5.63192 15.7439 6.87979C15.7959 6.93169 15.8549 6.9765 15.9106 7.02462C15.914 7.03291 15.9173 7.0412 15.9207 7.04945C15.9184 7.05802 15.916 7.06662 15.9138 7.07526C15.8726 7.13701 15.823 7.19266 15.7663 7.24057C11.593 11.4142 7.41897 15.5873 3.24439 19.7597C3.17809 19.826 3.12867 19.9255 3.0106 19.9194Z" fill="#00599C"/>
<path d="M15.9115 7.04804C15.911 7.04023 15.9106 7.03242 15.9104 7.02461C15.9386 7.0012 15.9688 6.97988 15.9946 6.95408C17.2606 5.68608 18.5258 4.41727 19.7902 3.14766C19.8872 3.05013 19.9806 3.00025 20.1249 3.00049C22.9488 3.00528 25.7728 3.00589 28.5967 3.00233C28.7212 3.00223 28.7926 3.00304 28.7925 3.17103C28.7873 8.71342 28.7857 14.2558 28.7879 19.7982C28.7879 19.829 28.7841 19.8597 28.7821 19.8905C28.6694 19.9018 28.6234 19.8064 28.5615 19.7446C27.1701 18.3564 25.7798 16.967 24.3906 15.5765C21.6196 12.8057 18.8488 10.0346 16.0783 7.26332C16.0144 7.19935 15.9293 7.14888 15.9115 7.04804Z" fill="#00599C"/>
<path d="M15.9115 7.04834C15.9607 7.09509 16.011 7.14078 16.059 7.18875C20.2405 11.3696 24.4221 15.5505 28.6037 19.7313C28.66 19.7876 28.7226 19.8377 28.7822 19.8908C28.7868 19.9583 28.7953 20.0258 28.7954 20.0932C28.7961 22.923 28.7959 25.7527 28.795 28.5825C28.795 28.6408 28.8148 28.7039 28.7743 28.7611C28.711 28.752 28.6839 28.6984 28.6467 28.6613C24.4078 24.4243 20.1695 20.1868 15.9316 15.9487C15.9229 15.94 15.9154 15.9301 15.9074 15.9207C15.8406 15.8501 15.8506 15.7603 15.8505 15.6753C15.849 12.8925 15.8487 10.1097 15.8497 7.32692C15.8497 7.23372 15.8512 7.14096 15.9123 7.06224L15.9115 7.04834Z" fill="#29A9E2"/>
<path d="M15.9124 7.06201C15.9118 9.90984 15.9112 12.7577 15.9105 15.6055C15.9105 15.7105 15.9086 15.8155 15.9075 15.9205C15.8575 15.9658 15.8053 16.009 15.7577 16.0567C11.5655 20.2478 7.3739 24.4394 3.18279 28.6315C3.14131 28.6786 3.10359 28.7288 3.06999 28.7818C2.98199 28.7465 3.00195 28.7032 3.00193 28.6708C3.0009 25.7905 3.00068 22.9101 3.0013 20.0298C3.00131 19.993 3.00737 19.9562 3.0106 19.9195C3.08317 19.8527 3.15825 19.7885 3.22792 19.7188C7.40516 15.5428 11.5824 11.3667 15.7595 7.19054C15.8063 7.14376 15.8413 7.08071 15.9124 7.06201Z" fill="#939498"/>
</g>
<defs>
<clipPath id="clip0_906_212">
<rect width="25.8" height="25.7817" fill="white" transform="translate(3 3)"/>
</clipPath>
</defs>
</svg>
