<?xml version="1.0" encoding="utf-8"?>
<!-- Generator: Adobe Illustrator 28.0.0, SVG Export Plug-In . SVG Version: 6.00 Build 0)  -->
<svg version="1.1" id="Layer_1" xmlns="http://www.w3.org/2000/svg" xmlns:xlink="http://www.w3.org/1999/xlink" x="0px" y="0px"
	 viewBox="0 0 32 32" style="enable-background:new 0 0 32 32;" xml:space="preserve">
<style type="text/css">
	.st0{fill:#FFFFFF;}
	.st1{fill:#E30613;}
</style>
<rect x="0" class="st0" width="32" height="32"/>
<path class="st1" d="M24.6,14.9v-4.2l-5-4.8h-7.1l-5,4.8v4.2L8.3,16l-0.9,1.2v4.2l5,4.8h7.1l5-4.8v-4.2L23.7,16l0,0L24.6,14.9z
	 M16,25.1L16,25.1L10.1,19l0.8-0.8l1.8,1.7h6.6l1.8-1.7l0.8,0.8L16,25.1z M13.2,16L13.2,16l2.8-2.6h0l2.8,2.6v0L16,18.6h0L13.2,16z
	 M21.1,13.8L19.3,12h-6.6l-1.8,1.7L10.1,13L16,7h0l5.9,6L21.1,13.8z"/>
</svg>
