<?xml version="1.0" encoding="utf-8"?>
<!-- Generator: Adobe Illustrator 28.0.0, SVG Export Plug-In . SVG Version: 6.00 Build 0)  -->
<svg version="1.1" id="Layer_1" xmlns="http://www.w3.org/2000/svg" xmlns:xlink="http://www.w3.org/1999/xlink" x="0px" y="0px"
	 viewBox="0 0 32 32" style="enable-background:new 0 0 32 32;" xml:space="preserve">
<style type="text/css">
	.st0{fill:#FFFFFF;}
	.st1{fill:#ED1C2B;}
</style>
<polygon class="st0" points="0,32 32,32 32,0 0,0 "/>
<path class="st1" d="M15,5.6v9.3h2V5.6c0-0.6,0.5-1.2,1.1-1.2c0.6,0,1.1,0.5,1.1,1.2v9.3h2V5.6c0-0.6,0.5-1.2,1.1-1.2
	c0.6,0,1.1,0.5,1.1,1.2v9.3h2.9c0.6,0,1.2,0.5,1.2,1.1c0,0.6-0.5,1.1-1.2,1.1h-2.9v9.3c0,0.6-0.5,1.2-1.1,1.2
	c-0.6,0-1.1-0.5-1.1-1.2v-9.3h-2v9.3c0,0.6-0.5,1.2-1.1,1.2c-0.6,0-1.1-0.5-1.1-1.2v-9.3h-2v9.3c0,0.6-0.5,1.2-1.1,1.2
	c-0.6,0-1.1-0.5-1.1-1.2v-9.3h-2v9.3c0,0.6-0.5,1.2-1.1,1.2c-0.6,0-1.1-0.5-1.1-1.2v-9.3H5.6c-0.6,0-1.2-0.5-1.2-1.1
	c0-0.6,0.5-1.1,1.2-1.1h2.9V5.6c0-0.6,0.5-1.2,1.1-1.2c0.6,0,1.1,0.5,1.1,1.2v9.3h2V5.6c0-0.6,0.5-1.2,1.1-1.2
	C14.5,4.4,15,4.9,15,5.6"/>
</svg>
